M48
;DRILL file {KiCad 4.0.6} date Sunday, August 26, 2018 'PMt' 12:51:41 PM
;FORMAT={-:-/ absolute / inch / decimal}
FMAT,2
INCH,TZ
T1C0.016
T2C0.028
T3C0.031
T4C0.035
T5C0.039
T6C0.071
%
G90
G05
M72
T1
X4.5276Y-3.937
X4.5472Y-2.7953
X4.7047Y-2.5787
X4.7244Y-3.6811
X4.7638Y-3.7598
X4.7638Y-4.0846
X4.8228Y-3.3465
X4.8228Y-3.7992
X4.8425Y-2.2638
X4.8524Y-4.2815
X4.8917Y-3.3957
X4.9213Y-3.5433
X4.9409Y-4.2323
X4.9508Y-3.376
X5.0394Y-3.3563
X5.0591Y-2.9528
X5.0591Y-4.0846
X5.0689Y-3.8189
X5.0984Y-3.5236
X5.1378Y-3.4646
X5.1378Y-4.1339
X5.1673Y-3.248
X5.1772Y-4.2323
X5.187Y-3.4547
X5.187Y-4.3406
X5.1969Y-2.3425
X5.2559Y-3.1693
X5.2657Y-3.8976
X5.2854Y-3.4252
X5.2953Y-3.937
X5.374Y-4.4882
X5.3937Y-3.1693
X5.4724Y-2.9528
X5.4823Y-3.3465
X5.6299Y-3.7205
X5.689Y-3.2874
X5.7283Y-3.9173
X5.8071Y-2.5787
X5.9449Y-2.185
X5.9646Y-2.7953
X5.9744Y-3.9469
X6.0138Y-4.9705
X6.0138Y-5.187
X6.122Y-4.2618
T2
X5.502Y-4.3996
X5.502Y-4.4783
X5.502Y-4.5571
X5.502Y-4.6358
X6.0138Y-4.3602
X6.0138Y-4.439
X6.0138Y-4.5177
X6.0138Y-4.5965
T3
X5.4232Y-4.0453
X5.4232Y-4.2421
T4
X5.7091Y-5.5098
X5.8091Y-5.5098
T5
X4.3967Y-3.2266
X4.3967Y-3.3266
X4.3967Y-3.4266
X4.3967Y-3.5266
X4.3967Y-3.6266
X4.3967Y-3.7266
X4.3967Y-3.8266
X4.4921Y-4.4567
X4.4921Y-4.5567
X4.4921Y-4.6567
X4.4921Y-4.7567
X4.4921Y-4.8567
X4.4921Y-4.9567
X4.4921Y-5.0567
X4.4921Y-5.1567
X4.4921Y-5.2567
X4.5374Y-2.439
X4.5374Y-2.6949
X4.5921Y-4.4567
X4.5921Y-4.5567
X4.5921Y-4.6567
X4.5921Y-4.7567
X4.5921Y-4.8567
X4.5921Y-4.9567
X4.5921Y-5.0567
X4.5921Y-5.1567
X4.5921Y-5.2567
X4.5921Y-5.3567
X4.6921Y-4.4567
X4.6921Y-4.5567
X4.6921Y-4.6567
X4.6921Y-4.7567
X4.6921Y-4.8567
X4.6921Y-4.9567
X4.6921Y-5.0567
X4.6921Y-5.1567
X4.6921Y-5.2567
X4.6921Y-5.3567
X4.6921Y-5.4567
X4.7146Y-2.439
X4.7146Y-2.6949
X4.7921Y-4.4567
X4.7921Y-4.5567
X4.7921Y-4.6567
X4.7921Y-4.7567
X4.7921Y-4.8567
X4.7921Y-4.9567
X4.7921Y-5.0567
X4.7921Y-5.1567
X4.7921Y-5.2567
X4.7921Y-5.3567
X4.7921Y-5.4567
X4.8921Y-4.4567
X4.8921Y-4.5567
X4.8921Y-4.6567
X4.8921Y-4.7567
X4.8921Y-4.8567
X4.8921Y-4.9567
X4.8921Y-5.0567
X4.8921Y-5.1567
X4.8921Y-5.2567
X4.8921Y-5.3567
X4.8921Y-5.4567
X4.9409Y-2.4606
X4.9409Y-2.5591
X4.9409Y-2.6575
X4.9921Y-4.4567
X4.9921Y-4.5567
X4.9921Y-4.6567
X4.9921Y-4.7567
X4.9921Y-4.8567
X4.9921Y-4.9567
X4.9921Y-5.0567
X4.9921Y-5.1567
X4.9921Y-5.2567
X4.9921Y-5.3567
X4.9921Y-5.4567
X5.0921Y-4.4567
X5.0921Y-4.5567
X5.0921Y-4.6567
X5.0921Y-4.7567
X5.0921Y-4.8567
X5.0921Y-4.9567
X5.0921Y-5.0567
X5.0921Y-5.1567
X5.0921Y-5.2567
X5.0921Y-5.3567
X5.0921Y-5.4567
X5.126Y-2.1457
X5.1921Y-4.4567
X5.1921Y-4.5567
X5.1921Y-4.6567
X5.1921Y-4.7567
X5.1921Y-4.8567
X5.1921Y-4.9567
X5.1921Y-5.0567
X5.1921Y-5.1567
X5.1921Y-5.2567
X5.1921Y-5.3567
X5.1921Y-5.4567
X5.2921Y-4.5567
X5.2921Y-4.6567
X5.2921Y-4.7567
X5.2921Y-4.8567
X5.2921Y-4.9567
X5.2921Y-5.0567
X5.2921Y-5.1567
X5.2921Y-5.2567
X5.2921Y-5.3567
X5.2921Y-5.4567
X5.3858Y-2.1457
X5.3921Y-4.6567
X5.3921Y-4.7567
X5.3921Y-4.8567
X5.3921Y-4.9567
X5.3921Y-5.0567
X5.3921Y-5.1567
X5.3921Y-5.2567
X5.3921Y-5.3567
X5.3921Y-5.4567
X5.7992Y-2.439
X5.7992Y-2.6949
X5.9764Y-2.439
X5.9764Y-2.6949
X6.0967Y-3.2266
X6.0967Y-3.3266
X6.0967Y-3.4266
X6.0967Y-3.5266
X6.0967Y-3.6266
X6.0967Y-3.7266
X6.0967Y-3.8266
T6
X4.8583Y-2.3819G85X4.8661Y-2.3819
G05
X4.8583Y-2.7362G85X4.8661Y-2.7362
G05
T0
M30
