G04 #@! TF.FileFunction,Soldermask,Top*
%FSLAX46Y46*%
G04 Gerber Fmt 4.6, Leading zero omitted, Abs format (unit mm)*
G04 Created by KiCad (PCBNEW 4.0.6) date Sunday, August 26, 2018 'PMt' 12:51:50 PM*
%MOMM*%
%LPD*%
G01*
G04 APERTURE LIST*
%ADD10C,0.100000*%
%ADD11R,1.150000X1.200000*%
%ADD12R,1.200000X1.150000*%
%ADD13R,1.400000X3.400000*%
%ADD14O,1.800000X1.800000*%
%ADD15R,2.300000X2.300000*%
%ADD16R,2.000000X1.800000*%
%ADD17R,0.800000X1.750000*%
%ADD18R,3.550000X1.400000*%
%ADD19R,1.400000X1.650000*%
%ADD20R,1.300000X1.200000*%
%ADD21R,1.000000X1.050000*%
%ADD22R,1.600000X1.800000*%
%ADD23C,2.000000*%
%ADD24C,1.300000*%
%ADD25R,1.900000X1.100000*%
%ADD26R,1.200000X1.400000*%
%ADD27R,0.960000X2.000000*%
%ADD28R,2.000000X0.960000*%
%ADD29R,2.200000X2.200000*%
%ADD30C,2.200000*%
%ADD31C,2.400000*%
%ADD32O,3.200000X2.900000*%
%ADD33R,2.100000X2.100000*%
%ADD34O,2.100000X2.100000*%
%ADD35C,1.600000*%
%ADD36C,5.162500*%
%ADD37C,2.100000*%
%ADD38C,2.150000*%
G04 APERTURE END LIST*
D10*
D11*
X148000000Y-55750000D03*
X148000000Y-57250000D03*
X149500000Y-55750000D03*
X149500000Y-57250000D03*
X155250000Y-114500000D03*
X155250000Y-113000000D03*
X156500000Y-114500000D03*
X156500000Y-113000000D03*
D12*
X154250000Y-108250000D03*
X152750000Y-108250000D03*
D11*
X141750000Y-94500000D03*
X141750000Y-96000000D03*
X137000000Y-81750000D03*
X137000000Y-83250000D03*
D12*
X144500000Y-85000000D03*
X143000000Y-85000000D03*
X121750000Y-94000000D03*
X123250000Y-94000000D03*
D11*
X120000000Y-91500000D03*
X120000000Y-90000000D03*
X133750000Y-81750000D03*
X133750000Y-83250000D03*
D12*
X144250000Y-88500000D03*
X142750000Y-88500000D03*
X129750000Y-75000000D03*
X131250000Y-75000000D03*
X137750000Y-75000000D03*
X136250000Y-75000000D03*
D13*
X141700000Y-56500000D03*
X146300000Y-56500000D03*
D14*
X136800000Y-54500000D03*
D15*
X132300000Y-54500000D03*
D16*
X130300000Y-56950000D03*
D17*
X134800000Y-57175000D03*
X134150000Y-57175000D03*
X132200000Y-57175000D03*
X132850000Y-57175000D03*
X133500000Y-57175000D03*
D16*
X136700000Y-56950000D03*
D15*
X134700000Y-54500000D03*
D14*
X130200000Y-54500000D03*
D18*
X125975000Y-103710000D03*
X131025000Y-103710000D03*
X125975000Y-106250000D03*
X131025000Y-106250000D03*
X125975000Y-108790000D03*
X131025000Y-108790000D03*
D19*
X126500000Y-56000000D03*
X124500000Y-56000000D03*
X142750000Y-86500000D03*
X144750000Y-86500000D03*
D20*
X152750000Y-122550000D03*
X152750000Y-124450000D03*
X154750000Y-123500000D03*
D11*
X132875000Y-75000000D03*
X132875000Y-76500000D03*
X141750000Y-140000000D03*
X141750000Y-138500000D03*
X134550000Y-75000000D03*
X134550000Y-76500000D03*
D12*
X156500000Y-116500000D03*
X155000000Y-116500000D03*
X152750000Y-119500000D03*
X154250000Y-119500000D03*
D11*
X118500000Y-85500000D03*
X118500000Y-87000000D03*
X144250000Y-98000000D03*
X144250000Y-99500000D03*
D21*
X123550000Y-87458000D03*
X120450000Y-87458000D03*
X123550000Y-85042000D03*
X120450000Y-85042000D03*
D22*
X123350000Y-92350000D03*
X123350000Y-90150000D03*
X121650000Y-90150000D03*
X121650000Y-92350000D03*
D23*
X137750000Y-102750000D03*
X137750000Y-107750000D03*
D11*
X141750000Y-98000000D03*
X141750000Y-99500000D03*
D12*
X118250000Y-103750000D03*
X119750000Y-103750000D03*
D11*
X143000000Y-99500000D03*
X143000000Y-98000000D03*
D24*
X114020747Y-107722398D03*
D25*
X115770747Y-108472398D03*
X115770747Y-106972398D03*
X115770747Y-103972398D03*
D24*
X114020747Y-104722398D03*
D26*
X112920747Y-102572398D03*
X115120747Y-102572398D03*
X112920747Y-109872398D03*
X115120747Y-109872398D03*
D27*
X137750000Y-85150000D03*
X136950000Y-85150000D03*
X136150000Y-85150000D03*
X135350000Y-85150000D03*
X134550000Y-85150000D03*
X133750000Y-85150000D03*
X132950000Y-85150000D03*
X132150000Y-85150000D03*
X131350000Y-85150000D03*
X130550000Y-85150000D03*
X129750000Y-85150000D03*
D28*
X127900000Y-87000000D03*
X127900000Y-87800000D03*
X127900000Y-88600000D03*
X127900000Y-89400000D03*
X127900000Y-90200000D03*
X127900000Y-91000000D03*
X127900000Y-91800000D03*
X127900000Y-92600000D03*
X127900000Y-93400000D03*
X127900000Y-94200000D03*
X127900000Y-95000000D03*
D27*
X129750000Y-96850000D03*
X130550000Y-96850000D03*
X131350000Y-96850000D03*
X132150000Y-96850000D03*
X132950000Y-96850000D03*
X133750000Y-96850000D03*
X134550000Y-96850000D03*
X135350000Y-96850000D03*
X136150000Y-96850000D03*
X136950000Y-96850000D03*
X137750000Y-96850000D03*
D28*
X139600000Y-95000000D03*
X139600000Y-94200000D03*
X139600000Y-93400000D03*
X139600000Y-92600000D03*
X139600000Y-91800000D03*
X139600000Y-91000000D03*
X139600000Y-90200000D03*
X139600000Y-89400000D03*
X139600000Y-88600000D03*
X139600000Y-87800000D03*
X139600000Y-87000000D03*
D29*
X147550000Y-139950000D03*
D30*
X145010000Y-139950000D03*
D31*
X125500000Y-65000000D03*
X125500000Y-67500000D03*
X125500000Y-62500000D03*
D32*
X123500000Y-69500000D03*
X123500000Y-60500000D03*
D33*
X111675000Y-81956000D03*
D34*
X111675000Y-84496000D03*
X111675000Y-87036000D03*
X111675000Y-89576000D03*
X111675000Y-92116000D03*
X111675000Y-94656000D03*
X111675000Y-97196000D03*
D33*
X154855000Y-81956000D03*
D34*
X154855000Y-84496000D03*
X154855000Y-87036000D03*
X154855000Y-89576000D03*
X154855000Y-92116000D03*
X154855000Y-94656000D03*
X154855000Y-97196000D03*
D35*
X139750000Y-111750000D03*
X139750000Y-113750000D03*
X139750000Y-115750000D03*
X139750000Y-117750000D03*
X152750000Y-110750000D03*
X152750000Y-112750000D03*
X152750000Y-114750000D03*
X152750000Y-116750000D03*
D36*
X112500000Y-139000000D03*
X154500000Y-139000000D03*
X112500000Y-57000000D03*
X154500000Y-57000000D03*
D37*
X114100000Y-113200000D03*
X116640000Y-113200000D03*
X119180000Y-113200000D03*
X121720000Y-113200000D03*
X124260000Y-113200000D03*
X126800000Y-113200000D03*
X129340000Y-113200000D03*
X131880000Y-113200000D03*
X114100000Y-115740000D03*
X116640000Y-115740000D03*
X119180000Y-115740000D03*
X121720000Y-115740000D03*
X124260000Y-115740000D03*
X126800000Y-115740000D03*
X129340000Y-115740000D03*
X131880000Y-115740000D03*
X134420000Y-115740000D03*
X114100000Y-118280000D03*
X116640000Y-118280000D03*
X119180000Y-118280000D03*
X121720000Y-118280000D03*
X124260000Y-118280000D03*
X126800000Y-118280000D03*
X129340000Y-118280000D03*
X131880000Y-118280000D03*
X134420000Y-118280000D03*
X136960000Y-118280000D03*
X114100000Y-120820000D03*
X116640000Y-120820000D03*
X119180000Y-120820000D03*
X121720000Y-120820000D03*
X124260000Y-120820000D03*
X126800000Y-120820000D03*
X129340000Y-120820000D03*
X131880000Y-120820000D03*
X134420000Y-120820000D03*
X136960000Y-120820000D03*
X114100000Y-123360000D03*
X116640000Y-123360000D03*
X119180000Y-123360000D03*
X121720000Y-123360000D03*
X124260000Y-123360000D03*
X126800000Y-123360000D03*
X129340000Y-123360000D03*
X131880000Y-123360000D03*
X134420000Y-123360000D03*
X136960000Y-123360000D03*
X114100000Y-125900000D03*
X116640000Y-125900000D03*
X119180000Y-125900000D03*
X121720000Y-125900000D03*
X124260000Y-125900000D03*
X126800000Y-125900000D03*
X129340000Y-125900000D03*
X131880000Y-125900000D03*
X134420000Y-125900000D03*
X136960000Y-125900000D03*
X114100000Y-128440000D03*
X116640000Y-128440000D03*
X119180000Y-128440000D03*
X121720000Y-128440000D03*
X124260000Y-128440000D03*
X126800000Y-128440000D03*
X129340000Y-128440000D03*
X131880000Y-128440000D03*
X134420000Y-128440000D03*
X136960000Y-128440000D03*
X114100000Y-130980000D03*
X116640000Y-130980000D03*
X119180000Y-130980000D03*
X121720000Y-130980000D03*
X124260000Y-130980000D03*
X126800000Y-130980000D03*
X129340000Y-130980000D03*
X131880000Y-130980000D03*
X134420000Y-130980000D03*
X136960000Y-130980000D03*
X114100000Y-133520000D03*
X116640000Y-133520000D03*
X119180000Y-133520000D03*
X121720000Y-133520000D03*
X124260000Y-133520000D03*
X126800000Y-133520000D03*
X129340000Y-133520000D03*
X131880000Y-133520000D03*
X134420000Y-133520000D03*
X136960000Y-133520000D03*
X116640000Y-136060000D03*
X119180000Y-136060000D03*
X121720000Y-136060000D03*
X124260000Y-136060000D03*
X126800000Y-136060000D03*
X129340000Y-136060000D03*
X131880000Y-136060000D03*
X134420000Y-136060000D03*
X136960000Y-136060000D03*
X119180000Y-138600000D03*
X121720000Y-138600000D03*
X124260000Y-138600000D03*
X126800000Y-138600000D03*
X129340000Y-138600000D03*
X131880000Y-138600000D03*
X134420000Y-138600000D03*
X136960000Y-138600000D03*
D38*
X119750000Y-61950000D03*
X119750000Y-68450000D03*
X115250000Y-61950000D03*
X115250000Y-68450000D03*
X151800000Y-61950000D03*
X151800000Y-68450000D03*
X147300000Y-61950000D03*
X147300000Y-68450000D03*
M02*
